<svg width="442" height="57" viewBox="0 0 442 57" fill="none" xmlns="http://www.w3.org/2000/svg">
<path d="M4.22727 46V11.0909H8.45455V42.25H24.6818V46H4.22727ZM41.6591 46.5455C39.1364 46.5455 36.9602 45.9886 35.1307 44.875C33.3125 43.75 31.9091 42.1818 30.9205 40.1705C29.9432 38.1477 29.4545 35.7955 29.4545 33.1136C29.4545 30.4318 29.9432 28.0682 30.9205 26.0227C31.9091 23.9659 33.2841 22.3636 35.0455 21.2159C36.8182 20.0568 38.8864 19.4773 41.25 19.4773C42.6136 19.4773 43.9602 19.7045 45.2898 20.1591C46.6193 20.6136 47.8295 21.3523 48.9205 22.375C50.0114 23.3864 50.8807 24.7273 51.5284 26.3977C52.1761 28.0682 52.5 30.125 52.5 32.5682V34.2727H32.3182V30.7955H48.4091C48.4091 29.3182 48.1136 28 47.5227 26.8409C46.9432 25.6818 46.1136 24.767 45.0341 24.0966C43.9659 23.4261 42.7045 23.0909 41.25 23.0909C39.6477 23.0909 38.2614 23.4886 37.0909 24.2841C35.9318 25.0682 35.0398 26.0909 34.4148 27.3523C33.7898 28.6136 33.4773 29.9659 33.4773 31.4091V33.7273C33.4773 35.7045 33.8182 37.3807 34.5 38.7557C35.1932 40.1193 36.1534 41.1591 37.3807 41.875C38.608 42.5795 40.0341 42.9318 41.6591 42.9318C42.7159 42.9318 43.6705 42.7841 44.5227 42.4886C45.3864 42.1818 46.1307 41.7273 46.7557 41.125C47.3807 40.5114 47.8636 39.75 48.2045 38.8409L52.0909 39.9318C51.6818 41.25 50.9943 42.4091 50.0284 43.4091C49.0625 44.3977 47.8693 45.1705 46.4489 45.7273C45.0284 46.2727 43.4318 46.5455 41.6591 46.5455ZM58.6193 55.8182V19.8182H62.5057V23.9773H62.983C63.2784 23.5227 63.6875 22.9432 64.2102 22.2386C64.7443 21.5227 65.5057 20.8864 66.4943 20.3295C67.4943 19.7614 68.8466 19.4773 70.5511 19.4773C72.7557 19.4773 74.6989 20.0284 76.3807 21.1307C78.0625 22.233 79.375 23.7955 80.3182 25.8182C81.2614 27.8409 81.733 30.2273 81.733 32.9773C81.733 35.75 81.2614 38.1534 80.3182 40.1875C79.375 42.2102 78.0682 43.7784 76.3977 44.892C74.7273 45.9943 72.8011 46.5455 70.6193 46.5455C68.9375 46.5455 67.5909 46.267 66.5795 45.7102C65.5682 45.142 64.7898 44.5 64.2443 43.7841C63.6989 43.0568 63.2784 42.4545 62.983 41.9773H62.642V55.8182H58.6193ZM62.5739 32.9091C62.5739 34.8864 62.8636 36.6307 63.4432 38.142C64.0227 39.642 64.8693 40.8182 65.983 41.6705C67.0966 42.5114 68.4602 42.9318 70.0739 42.9318C71.7557 42.9318 73.1591 42.4886 74.2841 41.6023C75.4205 40.7045 76.2727 39.5 76.8409 37.9886C77.4205 36.4659 77.7102 34.7727 77.7102 32.9091C77.7102 31.0682 77.4261 29.4091 76.858 27.9318C76.3011 26.4432 75.4545 25.267 74.3182 24.4034C73.1932 23.5284 71.7784 23.0909 70.0739 23.0909C68.4375 23.0909 67.0625 23.5057 65.9489 24.3352C64.8352 25.1534 63.9943 26.3011 63.4261 27.7784C62.858 29.2443 62.5739 30.9545 62.5739 32.9091ZM87.8693 46V19.8182H91.892V46H87.8693ZM89.9148 15.4545C89.1307 15.4545 88.4545 15.1875 87.8864 14.6534C87.3295 14.1193 87.0511 13.4773 87.0511 12.7273C87.0511 11.9773 87.3295 11.3352 87.8864 10.8011C88.4545 10.267 89.1307 10 89.9148 10C90.6989 10 91.3693 10.267 91.9261 10.8011C92.4943 11.3352 92.7784 11.9773 92.7784 12.7273C92.7784 13.4773 92.4943 14.1193 91.9261 14.6534C91.3693 15.1875 90.6989 15.4545 89.9148 15.4545ZM109.146 46.5455C106.964 46.5455 105.038 45.9943 103.368 44.892C101.697 43.7784 100.391 42.2102 99.4474 40.1875C98.5043 38.1534 98.0327 35.75 98.0327 32.9773C98.0327 30.2273 98.5043 27.8409 99.4474 25.8182C100.391 23.7955 101.703 22.233 103.385 21.1307C105.067 20.0284 107.01 19.4773 109.214 19.4773C110.919 19.4773 112.266 19.7614 113.254 20.3295C114.254 20.8864 115.016 21.5227 115.538 22.2386C116.072 22.9432 116.487 23.5227 116.783 23.9773H117.124V11.0909H121.146V46H117.26V41.9773H116.783C116.487 42.4545 116.067 43.0568 115.521 43.7841C114.976 44.5 114.197 45.142 113.186 45.7102C112.175 46.267 110.828 46.5455 109.146 46.5455ZM109.692 42.9318C111.305 42.9318 112.669 42.5114 113.783 41.6705C114.896 40.8182 115.743 39.642 116.322 38.142C116.902 36.6307 117.192 34.8864 117.192 32.9091C117.192 30.9545 116.908 29.2443 116.339 27.7784C115.771 26.3011 114.93 25.1534 113.817 24.3352C112.703 23.5057 111.328 23.0909 109.692 23.0909C107.987 23.0909 106.567 23.5284 105.43 24.4034C104.305 25.267 103.459 26.4432 102.891 27.9318C102.334 29.4091 102.055 31.0682 102.055 32.9091C102.055 34.7727 102.339 36.4659 102.908 37.9886C103.487 39.5 104.339 40.7045 105.464 41.6023C106.601 42.4886 108.01 42.9318 109.692 42.9318ZM145.572 35.2955V19.8182H149.595V46H145.572V41.5682H145.3C144.686 42.8977 143.732 44.0284 142.436 44.9602C141.141 45.8807 139.504 46.3409 137.527 46.3409C135.891 46.3409 134.436 45.983 133.163 45.267C131.891 44.5398 130.891 43.4489 130.163 41.9943C129.436 40.5284 129.072 38.6818 129.072 36.4545V19.8182H133.095V36.1818C133.095 38.0909 133.629 39.6136 134.697 40.75C135.777 41.8864 137.152 42.4545 138.822 42.4545C139.822 42.4545 140.839 42.1989 141.874 41.6875C142.919 41.1761 143.794 40.392 144.499 39.3352C145.214 38.2784 145.572 36.9318 145.572 35.2955ZM175.509 25.6818L171.895 26.7045C171.668 26.1023 171.332 25.517 170.889 24.9489C170.457 24.3693 169.866 23.892 169.116 23.517C168.366 23.142 167.406 22.9545 166.236 22.9545C164.634 22.9545 163.298 23.3239 162.23 24.0625C161.173 24.7898 160.645 25.7159 160.645 26.8409C160.645 27.8409 161.009 28.6307 161.736 29.2102C162.463 29.7898 163.599 30.2727 165.145 30.6591L169.031 31.6136C171.372 32.1818 173.116 33.0511 174.264 34.2216C175.412 35.3807 175.986 36.875 175.986 38.7045C175.986 40.2045 175.554 41.5455 174.69 42.7273C173.838 43.9091 172.645 44.8409 171.111 45.5227C169.577 46.2045 167.793 46.5455 165.759 46.5455C163.088 46.5455 160.878 45.9659 159.128 44.8068C157.378 43.6477 156.27 41.9545 155.804 39.7273L159.622 38.7727C159.986 40.1818 160.673 41.2386 161.685 41.9432C162.707 42.6477 164.043 43 165.69 43C167.565 43 169.054 42.6023 170.156 41.8068C171.27 41 171.827 40.0341 171.827 38.9091C171.827 38 171.509 37.2386 170.872 36.625C170.236 36 169.259 35.5341 167.94 35.2273L163.577 34.2045C161.179 33.6364 159.418 32.7557 158.293 31.5625C157.179 30.358 156.622 28.8523 156.622 27.0455C156.622 25.5682 157.037 24.2614 157.866 23.125C158.707 21.9886 159.849 21.0966 161.293 20.4489C162.747 19.8011 164.395 19.4773 166.236 19.4773C168.827 19.4773 170.861 20.0455 172.338 21.1818C173.827 22.3182 174.884 23.8182 175.509 25.6818ZM194.178 14.8409V11.0909H220.359V14.8409H209.382V46H205.155V14.8409H194.178ZM233.518 46.5455C230.996 46.5455 228.82 45.9886 226.99 44.875C225.172 43.75 223.768 42.1818 222.78 40.1705C221.803 38.1477 221.314 35.7955 221.314 33.1136C221.314 30.4318 221.803 28.0682 222.78 26.0227C223.768 23.9659 225.143 22.3636 226.905 21.2159C228.678 20.0568 230.746 19.4773 233.109 19.4773C234.473 19.4773 235.82 19.7045 237.149 20.1591C238.479 20.6136 239.689 21.3523 240.78 22.375C241.871 23.3864 242.74 24.7273 243.388 26.3977C244.036 28.0682 244.359 30.125 244.359 32.5682V34.2727H224.178V30.7955H240.268C240.268 29.3182 239.973 28 239.382 26.8409C238.803 25.6818 237.973 24.767 236.893 24.0966C235.825 23.4261 234.564 23.0909 233.109 23.0909C231.507 23.0909 230.121 23.4886 228.95 24.2841C227.791 25.0682 226.899 26.0909 226.274 27.3523C225.649 28.6136 225.337 29.9659 225.337 31.4091V33.7273C225.337 35.7045 225.678 37.3807 226.359 38.7557C227.053 40.1193 228.013 41.1591 229.24 41.875C230.467 42.5795 231.893 42.9318 233.518 42.9318C234.575 42.9318 235.53 42.7841 236.382 42.4886C237.246 42.1818 237.99 41.7273 238.615 41.125C239.24 40.5114 239.723 39.75 240.064 38.8409L243.95 39.9318C243.541 41.25 242.854 42.4091 241.888 43.4091C240.922 44.3977 239.729 45.1705 238.308 45.7273C236.888 46.2727 235.291 46.5455 233.518 46.5455ZM261.115 46.5455C258.661 46.5455 256.547 45.9659 254.774 44.8068C253.001 43.6477 251.638 42.0511 250.683 40.017C249.729 37.983 249.251 35.6591 249.251 33.0455C249.251 30.3864 249.74 28.0398 250.717 26.0057C251.706 23.9602 253.081 22.3636 254.842 21.2159C256.615 20.0568 258.683 19.4773 261.047 19.4773C262.888 19.4773 264.547 19.8182 266.024 20.5C267.501 21.1818 268.712 22.1364 269.655 23.3636C270.598 24.5909 271.183 26.0227 271.411 27.6591H267.388C267.081 26.4659 266.399 25.4091 265.342 24.4886C264.297 23.5568 262.888 23.0909 261.115 23.0909C259.547 23.0909 258.172 23.5 256.99 24.3182C255.82 25.125 254.905 26.267 254.246 27.7443C253.598 29.2102 253.274 30.9318 253.274 32.9091C253.274 34.9318 253.592 36.6932 254.229 38.1932C254.876 39.6932 255.786 40.858 256.956 41.6875C258.138 42.517 259.524 42.9318 261.115 42.9318C262.161 42.9318 263.109 42.75 263.962 42.3864C264.814 42.0227 265.536 41.5 266.126 40.8182C266.717 40.1364 267.138 39.3182 267.388 38.3636H271.411C271.183 39.9091 270.621 41.3011 269.723 42.5398C268.837 43.767 267.661 44.7443 266.195 45.4716C264.74 46.1875 263.047 46.5455 261.115 46.5455ZM281.314 30.25V46H277.291V19.8182H281.178V23.9091H281.518C282.132 22.5795 283.064 21.5114 284.314 20.7045C285.564 19.8864 287.178 19.4773 289.155 19.4773C290.928 19.4773 292.479 19.8409 293.808 20.5682C295.138 21.2841 296.172 22.375 296.911 23.8409C297.649 25.2955 298.018 27.1364 298.018 29.3636V46H293.996V29.6364C293.996 27.5795 293.462 25.9773 292.393 24.8295C291.325 23.6705 289.859 23.0909 287.996 23.0909C286.712 23.0909 285.564 23.3693 284.553 23.9261C283.553 24.483 282.763 25.2955 282.183 26.3636C281.604 27.4318 281.314 28.7273 281.314 30.25ZM316.006 46.5455C313.642 46.5455 311.568 45.983 309.784 44.858C308.011 43.733 306.625 42.1591 305.625 40.1364C304.636 38.1136 304.142 35.75 304.142 33.0455C304.142 30.3182 304.636 27.9375 305.625 25.9034C306.625 23.8693 308.011 22.2898 309.784 21.1648C311.568 20.0398 313.642 19.4773 316.006 19.4773C318.369 19.4773 320.438 20.0398 322.21 21.1648C323.994 22.2898 325.381 23.8693 326.369 25.9034C327.369 27.9375 327.869 30.3182 327.869 33.0455C327.869 35.75 327.369 38.1136 326.369 40.1364C325.381 42.1591 323.994 43.733 322.21 44.858C320.438 45.983 318.369 46.5455 316.006 46.5455ZM316.006 42.9318C317.801 42.9318 319.278 42.4716 320.438 41.5511C321.597 40.6307 322.455 39.4205 323.011 37.9205C323.568 36.4205 323.847 34.7955 323.847 33.0455C323.847 31.2955 323.568 29.6648 323.011 28.1534C322.455 26.642 321.597 25.4205 320.438 24.4886C319.278 23.5568 317.801 23.0909 316.006 23.0909C314.21 23.0909 312.733 23.5568 311.574 24.4886C310.415 25.4205 309.557 26.642 309 28.1534C308.443 29.6648 308.165 31.2955 308.165 33.0455C308.165 34.7955 308.443 36.4205 309 37.9205C309.557 39.4205 310.415 40.6307 311.574 41.5511C312.733 42.4716 314.21 42.9318 316.006 42.9318ZM338.033 11.0909V46H334.01V11.0909H338.033ZM356.037 46.5455C353.673 46.5455 351.599 45.983 349.815 44.858C348.043 43.733 346.656 42.1591 345.656 40.1364C344.668 38.1136 344.173 35.75 344.173 33.0455C344.173 30.3182 344.668 27.9375 345.656 25.9034C346.656 23.8693 348.043 22.2898 349.815 21.1648C351.599 20.0398 353.673 19.4773 356.037 19.4773C358.401 19.4773 360.469 20.0398 362.241 21.1648C364.026 22.2898 365.412 23.8693 366.401 25.9034C367.401 27.9375 367.901 30.3182 367.901 33.0455C367.901 35.75 367.401 38.1136 366.401 40.1364C365.412 42.1591 364.026 43.733 362.241 44.858C360.469 45.983 358.401 46.5455 356.037 46.5455ZM356.037 42.9318C357.832 42.9318 359.31 42.4716 360.469 41.5511C361.628 40.6307 362.486 39.4205 363.043 37.9205C363.599 36.4205 363.878 34.7955 363.878 33.0455C363.878 31.2955 363.599 29.6648 363.043 28.1534C362.486 26.642 361.628 25.4205 360.469 24.4886C359.31 23.5568 357.832 23.0909 356.037 23.0909C354.241 23.0909 352.764 23.5568 351.605 24.4886C350.446 25.4205 349.588 26.642 349.031 28.1534C348.474 29.6648 348.196 31.2955 348.196 33.0455C348.196 34.7955 348.474 36.4205 349.031 37.9205C349.588 39.4205 350.446 40.6307 351.605 41.5511C352.764 42.4716 354.241 42.9318 356.037 42.9318ZM384.609 56.3636C382.666 56.3636 380.996 56.1136 379.598 55.6136C378.2 55.125 377.036 54.4773 376.104 53.6705C375.183 52.875 374.45 52.0227 373.905 51.1136L377.109 48.8636C377.473 49.3409 377.933 49.8864 378.49 50.5C379.047 51.125 379.808 51.6648 380.774 52.1193C381.751 52.5852 383.03 52.8182 384.609 52.8182C386.723 52.8182 388.467 52.3068 389.842 51.2841C391.217 50.2614 391.905 48.6591 391.905 46.4773V41.1591H391.564C391.268 41.6364 390.848 42.2273 390.303 42.9318C389.768 43.625 388.996 44.2443 387.984 44.7898C386.984 45.3239 385.632 45.5909 383.928 45.5909C381.814 45.5909 379.916 45.0909 378.234 44.0909C376.564 43.0909 375.24 41.6364 374.263 39.7273C373.297 37.8182 372.814 35.5 372.814 32.7727C372.814 30.0909 373.286 27.7557 374.229 25.767C375.172 23.767 376.484 22.2216 378.166 21.1307C379.848 20.0284 381.791 19.4773 383.996 19.4773C385.7 19.4773 387.053 19.7614 388.053 20.3295C389.064 20.8864 389.837 21.5227 390.371 22.2386C390.916 22.9432 391.337 23.5227 391.632 23.9773H392.041V19.8182H395.928V46.75C395.928 49 395.416 50.8295 394.393 52.2386C393.382 53.6591 392.018 54.6989 390.303 55.358C388.598 56.0284 386.7 56.3636 384.609 56.3636ZM384.473 41.9773C386.087 41.9773 387.45 41.608 388.564 40.8693C389.678 40.1307 390.524 39.0682 391.104 37.6818C391.683 36.2955 391.973 34.6364 391.973 32.7045C391.973 30.8182 391.689 29.1534 391.121 27.7102C390.553 26.267 389.712 25.1364 388.598 24.3182C387.484 23.5 386.109 23.0909 384.473 23.0909C382.768 23.0909 381.348 23.5227 380.212 24.3864C379.087 25.25 378.24 26.4091 377.672 27.8636C377.115 29.3182 376.837 30.9318 376.837 32.7045C376.837 34.5227 377.121 36.1307 377.689 37.5284C378.268 38.9148 379.121 40.0057 380.246 40.8011C381.382 41.5852 382.791 41.9773 384.473 41.9773ZM403.291 46V19.8182H407.314V46H403.291ZM405.337 15.4545C404.553 15.4545 403.876 15.1875 403.308 14.6534C402.751 14.1193 402.473 13.4773 402.473 12.7273C402.473 11.9773 402.751 11.3352 403.308 10.8011C403.876 10.267 404.553 10 405.337 10C406.121 10 406.791 10.267 407.348 10.8011C407.916 11.3352 408.2 11.9773 408.2 12.7273C408.2 13.4773 407.916 14.1193 407.348 14.6534C406.791 15.1875 406.121 15.4545 405.337 15.4545ZM422.386 46.6136C420.727 46.6136 419.222 46.3011 417.869 45.6761C416.517 45.0398 415.443 44.125 414.648 42.9318C413.852 41.7273 413.455 40.2727 413.455 38.5682C413.455 37.0682 413.75 35.8523 414.341 34.9205C414.932 33.9773 415.722 33.2386 416.71 32.7045C417.699 32.1705 418.79 31.7727 419.983 31.5114C421.188 31.2386 422.398 31.0227 423.614 30.8636C425.205 30.6591 426.494 30.5057 427.483 30.4034C428.483 30.2898 429.21 30.1023 429.665 29.8409C430.131 29.5795 430.364 29.125 430.364 28.4773V28.3409C430.364 26.6591 429.903 25.3523 428.983 24.4205C428.074 23.4886 426.693 23.0227 424.841 23.0227C422.92 23.0227 421.415 23.4432 420.324 24.2841C419.233 25.125 418.466 26.0227 418.023 26.9773L414.205 25.6136C414.886 24.0227 415.795 22.7841 416.932 21.8977C418.08 21 419.33 20.375 420.682 20.0227C422.045 19.6591 423.386 19.4773 424.705 19.4773C425.545 19.4773 426.511 19.5795 427.602 19.7841C428.705 19.9773 429.767 20.3807 430.79 20.9943C431.824 21.608 432.682 22.5341 433.364 23.7727C434.045 25.0114 434.386 26.6705 434.386 28.75V46H430.364V42.4545H430.159C429.886 43.0227 429.432 43.6307 428.795 44.2784C428.159 44.9261 427.313 45.4773 426.256 45.9318C425.199 46.3864 423.909 46.6136 422.386 46.6136ZM423 43C424.591 43 425.932 42.6875 427.023 42.0625C428.125 41.4375 428.955 40.6307 429.511 39.642C430.08 38.6534 430.364 37.6136 430.364 36.5227V32.8409C430.193 33.0455 429.818 33.233 429.239 33.4034C428.67 33.5625 428.011 33.7045 427.261 33.8295C426.523 33.9432 425.801 34.0455 425.097 34.1364C424.403 34.2159 423.841 34.2841 423.409 34.3409C422.364 34.4773 421.386 34.6989 420.477 35.0057C419.58 35.3011 418.852 35.75 418.295 36.3523C417.75 36.9432 417.477 37.75 417.477 38.7727C417.477 40.1705 417.994 41.2273 419.028 41.9432C420.074 42.6477 421.398 43 423 43Z" fill="#1814F8"/>
</svg>
