<svg width="224" height="29" viewBox="0 0 224 29" fill="none" xmlns="http://www.w3.org/2000/svg">
<path d="M2.11364 23V5.54545H4.22727V21.125H12.3409V23H2.11364ZM20.8295 23.2727C19.5682 23.2727 18.4801 22.9943 17.5653 22.4375C16.6562 21.875 15.9545 21.0909 15.4602 20.0852C14.9716 19.0739 14.7273 17.8977 14.7273 16.5568C14.7273 15.2159 14.9716 14.0341 15.4602 13.0114C15.9545 11.983 16.642 11.1818 17.5227 10.608C18.4091 10.0284 19.4432 9.73864 20.625 9.73864C21.3068 9.73864 21.9801 9.85227 22.6449 10.0795C23.3097 10.3068 23.9148 10.6761 24.4602 11.1875C25.0057 11.6932 25.4403 12.3636 25.7642 13.1989C26.0881 14.0341 26.25 15.0625 26.25 16.2841V17.1364H16.1591V15.3977H24.2045C24.2045 14.6591 24.0568 14 23.7614 13.4205C23.4716 12.8409 23.0568 12.3835 22.517 12.0483C21.983 11.7131 21.3523 11.5455 20.625 11.5455C19.8239 11.5455 19.1307 11.7443 18.5455 12.142C17.9659 12.5341 17.5199 13.0455 17.2074 13.6761C16.8949 14.3068 16.7386 14.983 16.7386 15.7045V16.8636C16.7386 17.8523 16.9091 18.6903 17.25 19.3778C17.5966 20.0597 18.0767 20.5795 18.6903 20.9375C19.304 21.2898 20.017 21.4659 20.8295 21.4659C21.358 21.4659 21.8352 21.392 22.2614 21.2443C22.6932 21.0909 23.0653 20.8636 23.3778 20.5625C23.6903 20.2557 23.9318 19.875 24.1023 19.4205L26.0455 19.9659C25.8409 20.625 25.4972 21.2045 25.0142 21.7045C24.5313 22.1989 23.9347 22.5852 23.2244 22.8636C22.5142 23.1364 21.7159 23.2727 20.8295 23.2727ZM29.3097 27.9091V9.90909H31.2528V11.9886H31.4915C31.6392 11.7614 31.8438 11.4716 32.1051 11.1193C32.3722 10.7614 32.7528 10.4432 33.2472 10.1648C33.7472 9.88068 34.4233 9.73864 35.2756 9.73864C36.3778 9.73864 37.3494 10.0142 38.1903 10.5653C39.0313 11.1165 39.6875 11.8977 40.1591 12.9091C40.6307 13.9205 40.8665 15.1136 40.8665 16.4886C40.8665 17.875 40.6307 19.0767 40.1591 20.0938C39.6875 21.1051 39.0341 21.8892 38.1989 22.446C37.3636 22.9972 36.4006 23.2727 35.3097 23.2727C34.4688 23.2727 33.7955 23.1335 33.2898 22.8551C32.7841 22.571 32.3949 22.25 32.1222 21.892C31.8494 21.5284 31.6392 21.2273 31.4915 20.9886H31.321V27.9091H29.3097ZM31.2869 16.4545C31.2869 17.4432 31.4318 18.3153 31.7216 19.071C32.0114 19.821 32.4347 20.4091 32.9915 20.8352C33.5483 21.2557 34.2301 21.4659 35.0369 21.4659C35.8778 21.4659 36.5795 21.2443 37.142 20.8011C37.7102 20.3523 38.1364 19.75 38.4205 18.9943C38.7102 18.233 38.8551 17.3864 38.8551 16.4545C38.8551 15.5341 38.7131 14.7045 38.429 13.9659C38.1506 13.2216 37.7273 12.6335 37.1591 12.2017C36.5966 11.7642 35.8892 11.5455 35.0369 11.5455C34.2188 11.5455 33.5313 11.7528 32.9744 12.1676C32.4176 12.5767 31.9972 13.1506 31.7131 13.8892C31.429 14.6222 31.2869 15.4773 31.2869 16.4545ZM43.9347 23V9.90909H45.946V23H43.9347ZM44.9574 7.72727C44.5653 7.72727 44.2273 7.59375 43.9432 7.3267C43.6648 7.05966 43.5256 6.73864 43.5256 6.36364C43.5256 5.98864 43.6648 5.66761 43.9432 5.40057C44.2273 5.13352 44.5653 5 44.9574 5C45.3494 5 45.6847 5.13352 45.9631 5.40057C46.2472 5.66761 46.3892 5.98864 46.3892 6.36364C46.3892 6.73864 46.2472 7.05966 45.9631 7.3267C45.6847 7.59375 45.3494 7.72727 44.9574 7.72727ZM54.5732 23.2727C53.4822 23.2727 52.5192 22.9972 51.6839 22.446C50.8487 21.8892 50.1953 21.1051 49.7237 20.0938C49.2521 19.0767 49.0163 17.875 49.0163 16.4886C49.0163 15.1136 49.2521 13.9205 49.7237 12.9091C50.1953 11.8977 50.8516 11.1165 51.6925 10.5653C52.5334 10.0142 53.505 9.73864 54.6072 9.73864C55.4595 9.73864 56.1328 9.88068 56.6271 10.1648C57.1271 10.4432 57.5078 10.7614 57.7692 11.1193C58.0362 11.4716 58.2436 11.7614 58.3913 11.9886H58.5618V5.54545H60.5732V23H58.63V20.9886H58.3913C58.2436 21.2273 58.0334 21.5284 57.7607 21.892C57.4879 22.25 57.0987 22.571 56.593 22.8551C56.0874 23.1335 55.4141 23.2727 54.5732 23.2727ZM54.8459 21.4659C55.6527 21.4659 56.3345 21.2557 56.8913 20.8352C57.4482 20.4091 57.8714 19.821 58.1612 19.071C58.451 18.3153 58.5959 17.4432 58.5959 16.4545C58.5959 15.4773 58.4538 14.6222 58.1697 13.8892C57.8857 13.1506 57.4652 12.5767 56.9084 12.1676C56.3516 11.7528 55.6641 11.5455 54.8459 11.5455C53.9936 11.5455 53.2834 11.7642 52.7152 12.2017C52.1527 12.6335 51.7294 13.2216 51.4453 13.9659C51.1669 14.7045 51.0277 15.5341 51.0277 16.4545C51.0277 17.3864 51.1697 18.233 51.4538 18.9943C51.7436 19.75 52.1697 20.3523 52.7322 20.8011C53.3004 21.2443 54.005 21.4659 54.8459 21.4659ZM72.7862 17.6477V9.90909H74.7976V23H72.7862V20.7841H72.6499C72.343 21.4489 71.8658 22.0142 71.218 22.4801C70.5703 22.9403 69.7521 23.1705 68.7635 23.1705C67.9453 23.1705 67.218 22.9915 66.5817 22.6335C65.9453 22.2699 65.4453 21.7244 65.0817 20.9972C64.718 20.2642 64.5362 19.3409 64.5362 18.2273V9.90909H66.5476V18.0909C66.5476 19.0455 66.8146 19.8068 67.3487 20.375C67.8885 20.9432 68.576 21.2273 69.4112 21.2273C69.9112 21.2273 70.4197 21.0994 70.9368 20.8438C71.4595 20.5881 71.897 20.196 72.2493 19.6676C72.6072 19.1392 72.7862 18.4659 72.7862 17.6477ZM87.7543 12.8409L85.9474 13.3523C85.8338 13.0511 85.6662 12.7585 85.4446 12.4744C85.2287 12.1847 84.9332 11.946 84.5582 11.7585C84.1832 11.571 83.7031 11.4773 83.1179 11.4773C82.3168 11.4773 81.6491 11.6619 81.1151 12.0312C80.5866 12.3949 80.3224 12.858 80.3224 13.4205C80.3224 13.9205 80.5043 14.3153 80.8679 14.6051C81.2315 14.8949 81.7997 15.1364 82.5724 15.3295L84.5156 15.8068C85.6861 16.0909 86.5582 16.5256 87.1321 17.1108C87.706 17.6903 87.9929 18.4375 87.9929 19.3523C87.9929 20.1023 87.777 20.7727 87.3452 21.3636C86.919 21.9545 86.3224 22.4205 85.5554 22.7614C84.7884 23.1023 83.8963 23.2727 82.8793 23.2727C81.544 23.2727 80.4389 22.983 79.5639 22.4034C78.6889 21.8239 78.1349 20.9773 77.902 19.8636L79.8111 19.3864C79.9929 20.0909 80.3366 20.6193 80.8423 20.9716C81.3537 21.3239 82.0213 21.5 82.8452 21.5C83.7827 21.5 84.527 21.3011 85.0781 20.9034C85.6349 20.5 85.9134 20.017 85.9134 19.4545C85.9134 19 85.7543 18.6193 85.4361 18.3125C85.1179 18 84.6293 17.767 83.9702 17.6136L81.7884 17.1023C80.5895 16.8182 79.7088 16.3778 79.1463 15.7812C78.5895 15.179 78.3111 14.4261 78.3111 13.5227C78.3111 12.7841 78.5185 12.1307 78.9332 11.5625C79.3537 10.9943 79.9247 10.5483 80.6463 10.2244C81.3736 9.90057 82.1974 9.73864 83.1179 9.73864C84.4134 9.73864 85.4304 10.0227 86.169 10.5909C86.9134 11.1591 87.4418 11.9091 87.7543 12.8409ZM97.0888 7.42045V5.54545H110.18V7.42045H104.691V23H102.577V7.42045H97.0888ZM116.759 23.2727C115.498 23.2727 114.41 22.9943 113.495 22.4375C112.586 21.875 111.884 21.0909 111.39 20.0852C110.901 19.0739 110.657 17.8977 110.657 16.5568C110.657 15.2159 110.901 14.0341 111.39 13.0114C111.884 11.983 112.572 11.1818 113.452 10.608C114.339 10.0284 115.373 9.73864 116.555 9.73864C117.237 9.73864 117.91 9.85227 118.575 10.0795C119.239 10.3068 119.844 10.6761 120.39 11.1875C120.935 11.6932 121.37 12.3636 121.694 13.1989C122.018 14.0341 122.18 15.0625 122.18 16.2841V17.1364H112.089V15.3977H120.134C120.134 14.6591 119.987 14 119.691 13.4205C119.401 12.8409 118.987 12.3835 118.447 12.0483C117.913 11.7131 117.282 11.5455 116.555 11.5455C115.754 11.5455 115.06 11.7443 114.475 12.142C113.896 12.5341 113.45 13.0455 113.137 13.6761C112.825 14.3068 112.668 14.983 112.668 15.7045V16.8636C112.668 17.8523 112.839 18.6903 113.18 19.3778C113.526 20.0597 114.006 20.5795 114.62 20.9375C115.234 21.2898 115.947 21.4659 116.759 21.4659C117.288 21.4659 117.765 21.392 118.191 21.2443C118.623 21.0909 118.995 20.8636 119.308 20.5625C119.62 20.2557 119.862 19.875 120.032 19.4205L121.975 19.9659C121.771 20.625 121.427 21.2045 120.944 21.7045C120.461 22.1989 119.864 22.5852 119.154 22.8636C118.444 23.1364 117.646 23.2727 116.759 23.2727ZM130.558 23.2727C129.33 23.2727 128.273 22.983 127.387 22.4034C126.501 21.8239 125.819 21.0256 125.342 20.0085C124.864 18.9915 124.626 17.8295 124.626 16.5227C124.626 15.1932 124.87 14.0199 125.359 13.0028C125.853 11.9801 126.54 11.1818 127.421 10.608C128.308 10.0284 129.342 9.73864 130.523 9.73864C131.444 9.73864 132.273 9.90909 133.012 10.25C133.751 10.5909 134.356 11.0682 134.827 11.6818C135.299 12.2955 135.592 13.0114 135.705 13.8295H133.694C133.54 13.233 133.2 12.7045 132.671 12.2443C132.148 11.7784 131.444 11.5455 130.558 11.5455C129.773 11.5455 129.086 11.75 128.495 12.1591C127.91 12.5625 127.452 13.1335 127.123 13.8722C126.799 14.6051 126.637 15.4659 126.637 16.4545C126.637 17.4659 126.796 18.3466 127.114 19.0966C127.438 19.8466 127.893 20.429 128.478 20.8438C129.069 21.2585 129.762 21.4659 130.558 21.4659C131.08 21.4659 131.555 21.375 131.981 21.1932C132.407 21.0114 132.768 20.75 133.063 20.4091C133.359 20.0682 133.569 19.6591 133.694 19.1818H135.705C135.592 19.9545 135.31 20.6506 134.862 21.2699C134.418 21.8835 133.83 22.3722 133.097 22.7358C132.37 23.0938 131.523 23.2727 130.558 23.2727ZM140.657 15.125V23H138.646V9.90909H140.589V11.9545H140.759C141.066 11.2898 141.532 10.7557 142.157 10.3523C142.782 9.94318 143.589 9.73864 144.577 9.73864C145.464 9.73864 146.239 9.92045 146.904 10.2841C147.569 10.642 148.086 11.1875 148.455 11.9205C148.825 12.6477 149.009 13.5682 149.009 14.6818V23H146.998V14.8182C146.998 13.7898 146.731 12.9886 146.197 12.4148C145.663 11.8352 144.93 11.5455 143.998 11.5455C143.356 11.5455 142.782 11.6847 142.276 11.9631C141.776 12.2415 141.381 12.6477 141.092 13.1818C140.802 13.7159 140.657 14.3636 140.657 15.125ZM158.003 23.2727C156.821 23.2727 155.784 22.9915 154.892 22.429C154.006 21.8665 153.312 21.0795 152.812 20.0682C152.318 19.0568 152.071 17.875 152.071 16.5227C152.071 15.1591 152.318 13.9687 152.812 12.9517C153.312 11.9347 154.006 11.1449 154.892 10.5824C155.784 10.0199 156.821 9.73864 158.003 9.73864C159.185 9.73864 160.219 10.0199 161.105 10.5824C161.997 11.1449 162.69 11.9347 163.185 12.9517C163.685 13.9687 163.935 15.1591 163.935 16.5227C163.935 17.875 163.685 19.0568 163.185 20.0682C162.69 21.0795 161.997 21.8665 161.105 22.429C160.219 22.9915 159.185 23.2727 158.003 23.2727ZM158.003 21.4659C158.901 21.4659 159.639 21.2358 160.219 20.7756C160.798 20.3153 161.227 19.7102 161.506 18.9602C161.784 18.2102 161.923 17.3977 161.923 16.5227C161.923 15.6477 161.784 14.8324 161.506 14.0767C161.227 13.321 160.798 12.7102 160.219 12.2443C159.639 11.7784 158.901 11.5455 158.003 11.5455C157.105 11.5455 156.366 11.7784 155.787 12.2443C155.207 12.7102 154.778 13.321 154.5 14.0767C154.222 14.8324 154.082 15.6477 154.082 16.5227C154.082 17.3977 154.222 18.2102 154.5 18.9602C154.778 19.7102 155.207 20.3153 155.787 20.7756C156.366 21.2358 157.105 21.4659 158.003 21.4659ZM169.016 5.54545V23H167.005V5.54545H169.016ZM178.018 23.2727C176.837 23.2727 175.8 22.9915 174.908 22.429C174.021 21.8665 173.328 21.0795 172.828 20.0682C172.334 19.0568 172.087 17.875 172.087 16.5227C172.087 15.1591 172.334 13.9687 172.828 12.9517C173.328 11.9347 174.021 11.1449 174.908 10.5824C175.8 10.0199 176.837 9.73864 178.018 9.73864C179.2 9.73864 180.234 10.0199 181.121 10.5824C182.013 11.1449 182.706 11.9347 183.2 12.9517C183.7 13.9687 183.95 15.1591 183.95 16.5227C183.95 17.875 183.7 19.0568 183.2 20.0682C182.706 21.0795 182.013 21.8665 181.121 22.429C180.234 22.9915 179.2 23.2727 178.018 23.2727ZM178.018 21.4659C178.916 21.4659 179.655 21.2358 180.234 20.7756C180.814 20.3153 181.243 19.7102 181.521 18.9602C181.8 18.2102 181.939 17.3977 181.939 16.5227C181.939 15.6477 181.8 14.8324 181.521 14.0767C181.243 13.321 180.814 12.7102 180.234 12.2443C179.655 11.7784 178.916 11.5455 178.018 11.5455C177.121 11.5455 176.382 11.7784 175.803 12.2443C175.223 12.7102 174.794 13.321 174.516 14.0767C174.237 14.8324 174.098 15.6477 174.098 16.5227C174.098 17.3977 174.237 18.2102 174.516 18.9602C174.794 19.7102 175.223 20.3153 175.803 20.7756C176.382 21.2358 177.121 21.4659 178.018 21.4659ZM192.305 28.1818C191.333 28.1818 190.498 28.0568 189.799 27.8068C189.1 27.5625 188.518 27.2386 188.052 26.8352C187.592 26.4375 187.225 26.0114 186.952 25.5568L188.555 24.4318C188.737 24.6705 188.967 24.9432 189.245 25.25C189.523 25.5625 189.904 25.8324 190.387 26.0597C190.876 26.2926 191.515 26.4091 192.305 26.4091C193.362 26.4091 194.234 26.1534 194.921 25.642C195.609 25.1307 195.952 24.3295 195.952 23.2386V20.5795H195.782C195.634 20.8182 195.424 21.1136 195.151 21.4659C194.884 21.8125 194.498 22.1222 193.992 22.3949C193.492 22.6619 192.816 22.7955 191.964 22.7955C190.907 22.7955 189.958 22.5455 189.117 22.0455C188.282 21.5455 187.62 20.8182 187.131 19.8636C186.648 18.9091 186.407 17.75 186.407 16.3864C186.407 15.0455 186.643 13.8778 187.114 12.8835C187.586 11.8835 188.242 11.1108 189.083 10.5653C189.924 10.0142 190.896 9.73864 191.998 9.73864C192.85 9.73864 193.526 9.88068 194.026 10.1648C194.532 10.4432 194.918 10.7614 195.185 11.1193C195.458 11.4716 195.668 11.7614 195.816 11.9886H196.021V9.90909H197.964V23.375C197.964 24.5 197.708 25.4148 197.197 26.1193C196.691 26.8295 196.009 27.3494 195.151 27.679C194.299 28.0142 193.35 28.1818 192.305 28.1818ZM192.237 20.9886C193.043 20.9886 193.725 20.804 194.282 20.4347C194.839 20.0653 195.262 19.5341 195.552 18.8409C195.842 18.1477 195.987 17.3182 195.987 16.3523C195.987 15.4091 195.844 14.5767 195.56 13.8551C195.276 13.1335 194.856 12.5682 194.299 12.1591C193.742 11.75 193.055 11.5455 192.237 11.5455C191.384 11.5455 190.674 11.7614 190.106 12.1932C189.543 12.625 189.12 13.2045 188.836 13.9318C188.558 14.6591 188.418 15.4659 188.418 16.3523C188.418 17.2614 188.56 18.0653 188.844 18.7642C189.134 19.4574 189.56 20.0028 190.123 20.4006C190.691 20.7926 191.396 20.9886 192.237 20.9886ZM201.646 23V9.90909H203.657V23H201.646ZM202.668 7.72727C202.276 7.72727 201.938 7.59375 201.654 7.3267C201.376 7.05966 201.237 6.73864 201.237 6.36364C201.237 5.98864 201.376 5.66761 201.654 5.40057C201.938 5.13352 202.276 5 202.668 5C203.06 5 203.396 5.13352 203.674 5.40057C203.958 5.66761 204.1 5.98864 204.1 6.36364C204.1 6.73864 203.958 7.05966 203.674 7.3267C203.396 7.59375 203.06 7.72727 202.668 7.72727ZM211.193 23.3068C210.364 23.3068 209.611 23.1506 208.935 22.8381C208.259 22.5199 207.722 22.0625 207.324 21.4659C206.926 20.8636 206.727 20.1364 206.727 19.2841C206.727 18.5341 206.875 17.9261 207.17 17.4602C207.466 16.9886 207.861 16.6193 208.355 16.3523C208.849 16.0852 209.395 15.8864 209.991 15.7557C210.594 15.6193 211.199 15.5114 211.807 15.4318C212.602 15.3295 213.247 15.2528 213.741 15.2017C214.241 15.1449 214.605 15.0511 214.832 14.9205C215.065 14.7898 215.182 14.5625 215.182 14.2386V14.1705C215.182 13.3295 214.952 12.6761 214.491 12.2102C214.037 11.7443 213.347 11.5114 212.42 11.5114C211.46 11.5114 210.707 11.7216 210.162 12.142C209.616 12.5625 209.233 13.0114 209.011 13.4886L207.102 12.8068C207.443 12.0114 207.898 11.392 208.466 10.9489C209.04 10.5 209.665 10.1875 210.341 10.0114C211.023 9.82955 211.693 9.73864 212.352 9.73864C212.773 9.73864 213.256 9.78977 213.801 9.89204C214.352 9.98864 214.884 10.1903 215.395 10.4972C215.912 10.804 216.341 11.267 216.682 11.8864C217.023 12.5057 217.193 13.3352 217.193 14.375V23H215.182V21.2273H215.08C214.943 21.5114 214.716 21.8153 214.398 22.1392C214.08 22.4631 213.656 22.7386 213.128 22.9659C212.599 23.1932 211.955 23.3068 211.193 23.3068ZM211.5 21.5C212.295 21.5 212.966 21.3438 213.511 21.0312C214.063 20.7188 214.477 20.3153 214.756 19.821C215.04 19.3267 215.182 18.8068 215.182 18.2614V16.4205C215.097 16.5227 214.909 16.6165 214.619 16.7017C214.335 16.7812 214.006 16.8523 213.631 16.9148C213.261 16.9716 212.901 17.0227 212.548 17.0682C212.202 17.108 211.92 17.142 211.705 17.1705C211.182 17.2386 210.693 17.3494 210.239 17.5028C209.79 17.6506 209.426 17.875 209.148 18.1761C208.875 18.4716 208.739 18.875 208.739 19.3864C208.739 20.0852 208.997 20.6136 209.514 20.9716C210.037 21.3239 210.699 21.5 211.5 21.5Z" fill="#1814F8"/>
</svg>
